<svg xmlns="http://www.w3.org/2000/svg" viewBox="-30 -25 60 70"><defs><g id="bb"><g fill="#f6c159"><circle id="b" r="4" /></g><use transform="scale(0.4)" y="-4" href="#b" fill="#f1daae" /></g><g id="ff"><g stroke-width="2" stroke-linecap="round" stroke-linejoin="round"><g fill="#f04545" stroke="#f04545"><path id="f" d="M 0 1 c -3.5 0 -4.5 -4.5 0 -6.5 4.5 1.5 3.5 6.5 0 6.5" /></g><g fill="#e8da38" stroke="#e8da38"><use transform="scale(0.6)" href="#f" /></g></g></g></defs><g transform="translate(0 5)"><use transform="translate(10 -25) rotate(30)" href="#bb" /><use transform="translate(0 -12.5) rotate(-30) scale(0.7)" href="#bb" /><use transform="translate(-10 -20) rotate(-30) scale(0.8)" href="#bb" /></g><g fill="none" stroke="#e18434" stroke-width="5" stroke-linecap="round"><g transform="translate(0 40)"><g transform="rotate(-20)"><g transform="scale(1 -1)"><path d="M 0 48 v -30" /></g></g></g></g><g fill="none" stroke="#2e2e2c" stroke-width="6" stroke-linecap="round"><g id="l"><g transform="rotate(20) translate(0 35)"><path d="M 0 0 v 8" /></g></g><use transform="scale(-1 1)" href="#l" /></g><g fill="#2e2e2c"><rect x="-20" width="40" height="8" rx="4" /><path d="M -16 4 a 22 22 0 1 0 32 0"/></g><g transform="translate(0 42)"><g id="fff"><use transform="translate(8 0) scale(0.8) rotate(28)" href="#ff" /><use transform="translate(4 0) scale(0.9) rotate(16)" href="#ff" /></g><use transform="scale(-1 1)" href="#fff" /><use href="#ff" /></g><g fill="#edb927"><g transform="translate(2.5 1)"><g id="sss"><rect id="s" x="-1.5" y="-1.5" width="3" height="9" rx="1.5" /><use transform="translate(4.1 0) scale(1.2)" href="#s" /><use transform="translate(8 0) scale(0.8)" href="#s" /></g></g><path d="M -3 0 h 16" stroke="#edb927" stroke-width="4" stroke-linecap="round" /></g></svg>