<svg xmlns="http://www.w3.org/2000/svg" viewBox="-40 -40 80 80"><g fill="currentColor" stroke="currentColor" stroke-width="2" stroke-linecap="round" stroke-linejoin="round"><g id="h" style="color: #e7a76a;"><g transform="translate(-22 -20) rotate(-30)"><path d="M 0 10 a 10 10 0 0 0 0 -20 c 1.5 6 1.5 14 0 20" /></g></g><use transform="scale(-1 1)" href="#h" /><path style="color: #f0d584;" d="M -33 0 a 33 33 0 0 1 66 0 c 0 11 -5 30 -33 30 -28 0 -33 -19 -33 -30" /><g id="e"><g transform="translate(12 -10)"><circle r="9" style="color: #ffffff;" /><circle r="5" style="color: #542b19;" /><circle r="2" cx="-2.5" cy="-2.5" style="color: #ffffff;" /></g></g><use transform="scale(-1 1)" href="#e" /><path style="color: #fd971b;" d="M -3 2 a 3 3 0 0 1 6 0 q 0 3 -3 6 -3 -3 -3 -6" /><g id="w" style="color: #e7a76a;"><g transform="translate(-30 8)"><path d="M 0 -10 a 10 10 0 0 1 10 10 q 0 8 -10 14 -10 -6 -10 -14 a 10 10 0 0 1 10 -10" /></g></g><use transform="scale(-1 1)" href="#w" /><g id="f" style="color: #fd971b;"><g transform="translate(-10 31)"><rect rx="2" x="-2" y="-6" width="4" height="12" /><g id="ff"><g transform="translate(2.5 0)"><rect rx="2" y="-4" width="4" height="8" /></g></g><use transform="scale(-1 1)" href="#ff" /></g></g><use transform="scale(-1 1)" href="#f" /></g></svg>