<svg xmlns="http://www.w3.org/2000/svg" viewBox="-62.604000091552734 -51.395999908447266 129.6131591796875 102.7920150756836"><g stroke-width="10" stroke-linecap="round" stroke-linejoin="round"><g fill="hsl(48 94% 68%)" stroke="hsl(48 94% 68%)" ><path d="M -12.603 -17.701 L 57.604 -17.701 L 25.963 46.396 L -44.243 46.396 Z" /><path fill="hsl(45 86% 81%)" stroke="hsl(45 86% 81%)" d="M -13.347 -20.235 L 49.839 -20.235 L 21.363 37.452 L -41.823 37.452 Z" /><path d="M -16.687 -27.409 L 46.499 -27.409 L 18.023 30.278 L -45.163 30.278 Z" /><path fill="hsl(45 86% 81%)" stroke="hsl(45 86% 81%)" d="M -20.027 -34.583 L 43.159 -34.583 L 14.683 23.105 L -48.503 23.105 Z" /><path d="M -25.963 -46.396 L 44.243 -46.396 L 12.603 17.701 L -57.604 17.701 Z" /><path d="M 57.604 -17.701 L 25.963 46.396 C 30.9 46.396 31.817 40.119 28.059 32.049 L 59.699 -32.049 C 63.457 -23.978 62.54 -17.701 57.604 -17.701 Z" /><path d="M 44.243 -46.396 L 12.603 17.701 C 17.539 17.701 24.301 23.978 28.059 32.049 L 59.699 -32.049 C 55.942 -40.119 49.18 -46.396 44.243 -46.396 Z" /></g><path fill="hsl(42 87% 55%)" stroke="hsl(42 87% 55%)" d="M -13.686 -11.307 C -30.792 -4.867 -30.792 -4.867 -21.208 -17.373 C -29.018 -25.899 -29.018 -25.899 -12.346 -27.188 C -0.067 -38.897 -0.067 -38.897 0.653 -27.188 C 16.052 -25.899 16.052 -25.899 -0.175 -17.373 C -2.937 -4.867 -2.937 -4.867 -13.686 -11.307 Z" /></g></svg>