<svg xmlns="http://www.w3.org/2000/svg" viewBox="-35.35533905029297 -42.18376541137695 77.53910827636719 77.53910827636719"><defs><clipPath id="blog-clip-path"><circle cx="0" cy="50" r="8" /></clipPath></defs><g transform="rotate(45)"><path fill="#ff8ae1" d="M 0 -50 h 8 a 4 4 0 0 1 4 4 v 13 h -24 v -13 a 4 4 0 0 1 4 -4" /><path fill="#f064ca" d="M 0 -50 h 8 a 4 4 0 0 1 4 4 v 13 h -12" /><rect fill="#a3bcec" x="-12" y="-33" width="24" height="12" /><rect fill="#cfe4ff" x="-6" y="-31" width="5" height="7" /><path fill="#fecf22" d="M -12 -21 v 53 a 8 8 0 0 1 12 0 8 8 0 0 1 12 0 v -53" /><path fill="#f3ac32" d="M 0 -21 v 53 a 8 8 0 0 1 12 0 v -53" /><path fill="#fce6c7" d="M -12 32 l 0 1 12 17 12 -17 0 -1 a 8 8 0 0 0 -12 0 8 8 0 0 0 -12 0" /><path clip-path="url(#blog-clip-path)" fill="#464057" d="M -12 32 l 0 1 12 17 12 -17 0 -1 a 8 8 0 0 0 -12 0 8 8 0 0 0 -12 0" /></g></svg>