<svg xmlns="http://www.w3.org/2000/svg" viewBox="-50 -50 100 100"><style>@media (prefers-color-scheme:dark){g{stroke:#f9703e;stroke-width:6}path{stroke-width:7}}</style><g fill="none" stroke="#19216b" stroke-linejoin="round" stroke-linecap="round"><path stroke-width="8" d="M34.527-34.027q5.657 26.87-20.506 53.033L6.95 26.077a8 8 0 0 1-11.314 0L-25.577 4.864a8 8 0 0 1 0-11.314l7.07-7.07Q7.658-39.685 34.528-34.028"/><g stroke-width="7" transform="rotate(45 2.81 1.664)"><path d="M23 6h2a12 12 0 0 1 12 12v6H16M-23 6h-2a12 12 0 0 0-12 12v6h21M0 24c-10 5-12 16 0 22.5C12 40 10 29 0 24"/><circle r="9" cy="-11"/></g></g></svg>