<svg xmlns="http://www.w3.org/2000/svg" viewBox="-97.29399871826172 -70.87699890136719 123.79400634765625 119.17003631591797"><g fill="hsl(45 90% 88%)" stroke="hsl(45 90% 88%)" stroke-width="3" stroke-linecap="round" stroke-linejoin="round"><path d="M -1.593 46.682 L 25 45 L 24.756 18.355" /><path fill="hsl(40 13% 23%)" stroke="hsl(40 13% 23%)" stroke-width="2.8" d="M 16.136 45.561 L 25 45 L 24.919 36.118" /><path d="M 18.948 34.068 C 22.307 32.262 24.919 33.178 24.919 36.161 C 24.919 39.144 22.307 42.869 18.948 44.674 C 15.59 46.479 12.978 45.563 12.978 42.58 C 12.978 39.597 15.59 35.873 18.948 34.068" /><path d="M 18.948 34.068 C 22.307 32.262 24.919 33.178 24.919 36.161 C 24.919 39.144 22.307 42.869 18.948 44.674 C 15.59 46.479 12.978 45.563 12.978 42.58 C 12.978 39.597 15.59 35.873 18.948 34.068" /><path d="M 6.844 12.203 C 16.92 6.787 24.756 9.535 24.756 18.484 C 24.756 27.433 16.92 38.606 6.844 44.022 C -3.231 49.438 -11.067 46.69 -11.067 37.741 C -11.067 28.792 -3.231 17.619 6.844 12.203" /></g><g fill="hsl(48 94% 68%)" stroke="hsl(48 94% 68%)"><path  stroke-width="3" stroke-linecap="round" stroke-linejoin="round" d="M 5.331 10.795 C -4.744 16.211 -12.58 27.384 -12.58 36.334 C -12.58 45.283 -4.744 48.031 5.331 42.615 C 15.407 37.199 23.243 26.026 23.243 17.077 C 23.243 8.127 15.407 5.379 5.331 10.795" /><path fill="none" stroke-width="48" d="M 5.331 26.705 L -55.187 -29.586" /></g><g fill="hsl(43 13% 90%)" stroke="hsl(43 13% 90%)"> <path fill="none" stroke-width="48" d="M -56.7 -30.994 L -62.752 -36.623" /><g stroke-width="3" stroke-linecap="round" stroke-linejoin="round"> <path d="M -56.7 -46.904 C -66.776 -41.488 -74.612 -30.315 -74.612 -21.365 C -74.612 -12.416 -66.776 -9.668 -56.7 -15.084 C -46.625 -20.5 -38.788 -31.673 -38.788 -40.622 C -38.788 -49.571 -46.625 -52.32 -56.7 -46.904" /><path d="M -62.752 -52.533 C -52.677 -57.949 -44.84 -55.201 -44.84 -46.251 C -44.84 -37.302 -52.677 -26.129 -62.752 -20.713 C -72.827 -15.297 -80.664 -18.045 -80.664 -26.994 C -80.664 -35.944 -72.827 -47.117 -62.752 -52.533" /></g></g><path fill="none" stroke="hsl(360 100% 80%)" stroke-width="48" d="M -65.778 -39.437 L -77.882 -50.696" /><g fill="hsl(360 100% 80%)" stroke="hsl(360 100% 80%)" stroke-width="3" stroke-linecap="round" stroke-linejoin="round"> <path d="M -77.882 -66.606 C -67.806 -72.022 -59.97 -69.274 -59.97 -60.324 C -59.97 -51.375 -67.806 -40.202 -77.882 -34.786 C -87.957 -29.37 -95.794 -32.118 -95.794 -41.067 C -95.794 -50.017 -87.957 -61.19 -77.882 -66.606" /><path d="M -65.778 -55.347 C -75.853 -49.931 -83.69 -38.758 -83.69 -29.809 C -83.69 -20.86 -75.853 -18.112 -65.778 -23.528 C -55.703 -28.944 -47.866 -40.117 -47.866 -49.066 C -47.866 -58.015 -55.703 -60.763 -65.778 -55.347" /></g><path fill="hsl(360 91% 69%)" stroke="hsl(360 91% 69%)" stroke-width="4" stroke-linecap="round" stroke-linejoin="round" d="M -77.174 -51.58 C -80.018 -42.986 -80.018 -42.986 -83.97 -47.494 C -92.414 -43.174 -92.414 -43.174 -86.534 -51.722 C -88.908 -57.647 -88.908 -57.647 -81.323 -58.422 C -74.346 -66.403 -74.346 -66.403 -75.538 -58.334 C -68.852 -57.342 -68.852 -57.342 -77.174 -51.58 Z" /></svg>