<svg viewBox="0 -3.6921417236328145 100 100" xmlns="http://www.w3.org/2000/svg"><g stroke="#171717" stroke-width="2" stroke-linecap="round" stroke-linejoin="round"><g fill="#f7f7f7"><path d="m49 1.23c-4.43-0.0084-8.55 0.943-11.4 2.57-8.24 3.74-3.56 7.6-3.56 7.6 12.5-7.21 24.1-3.36 29.7 4.84 0 0 6.62-1.13 3.2-6.42-4.75-5.9-10.6-8.58-18-8.59z"/><path d="m42.8 52.5 0.931 32.6s0.186 6.89 6.89 6.33c6.7-0.559 7.64-8.01 7.64-13.6s-1.68-24.8 6.33-33.3c0 0 13 14.9 20.5 7.03 5.35-5.61-0.687-9.22-6.45-14.4-12.6-11.3-10.7-13.5-13.8-18.7-16.8-27.7-49 0.0452-48.9 26.4 0.2 7.2 4.69 11.5 11.4 11l-0.186-7.45s-2.05 22.7 16 19.4" /></g><g fill="none"><path d="m46.2 17s-4.66 4.28-5.96 16"/><path d="m53.4 18.2s-3.17 4.28-2.79 12.7"/><path d="m39.9 15.2s-4.84 5.4-7.26 13"/></g></g></svg>