<svg viewBox="-4 -4 108 108" xmlns="http://www.w3.org/2000/svg"><defs><g id="s" transform="translate(50 50)"><path d="M 0 0 v 36 a 5 5 0 0 1 0 10 5 5 0 0 1 0 -10 v -72 a 5 5 0 0 1 0 -10 5 5 0 0 1 0 10" /><path transform="rotate(45)" d="M 0 0 v 36 a 5 5 0 0 1 0 10 5 5 0 0 1 0 -10 v -72 a 5 5 0 0 1 0 -10 5 5 0 0 1 0 10" /><path transform="rotate(90)" d="M 0 0 v 36 a 5 5 0 0 1 0 10 5 5 0 0 1 0 -10 v -72 a 5 5 0 0 1 0 -10 5 5 0 0 1 0 10" /><path transform="rotate(135)" d="M 0 0 v 36 a 5 5 0 0 1 0 10 5 5 0 0 1 0 -10 v -72 a 5 5 0 0 1 0 -10 5 5 0 0 1 0 10" /></g><linearGradient id="g" x1="0" x2="0" y1="0" y2="100" gradientUnits="userSpaceOnUse"><stop stop-color="#f1f5f8" offset="0.33" /><stop stop-color="#dae2ec" offset="0.33" /><stop stop-color="#dae2ec" offset="0.67" /><stop stop-color="#bcccdc" offset="0.67" /></linearGradient><mask id="m-1"><rect width="100" height="100" fill="black" /><use fill="white" stroke="white" stroke-width="16" href="#s" /></mask><mask id="m-2"><rect width="100" height="100" fill="black" /><use fill="white" stroke="white" stroke-width="6" href="#s" /></mask></defs><rect x="-4" y="-4" width="108" height="108" fill="#102a42" mask="url(#m-1)" /><rect width="100" height="100" fill="url(#g)" mask="url(#m-2)" /></svg>