<svg xmlns="http://www.w3.org/2000/svg" viewBox="0 0 4 4"><path d="M 0 0 l 2 2 2 -2z" fill="#71c49a" /><path d="M 0 0 l 2 2 2 -2z" fill="#f6e48e" transform="translate(0 4) rotate(270)" /><path d="M 0 0 l 1 1 -1 1z" fill="#ef847a" transform="translate(4 2) rotate(180)" /><path d="M 0 0 l 1 1 -1 1z" fill="#ef847a" transform="translate(1 3) rotate(270)" /><path d="M 0 0 l 2 2 h-2z" fill="#abdcc7" transform="translate(2 4) rotate(-90)" /><path d="M 0 0 l 1 1 1 -1 -1 -1z" fill="#71c49a" transform="translate(2 2) rotate(0)" /><path d="M 0 0 l 1 -1 h 2 l -1 1z" fill="#f6e48e" transform="translate(0 4) rotate(0)" /></svg>