<svg xmlns="http://www.w3.org/2000/svg" viewBox="0 0 144 16">
  <style>
    svg {
      max-width: 400px;
      height: auto;
      display: block;
      margin: 0 auto;
    }
  </style>
  <defs>
    <rect id="p" width="1" height="1" />
    <pattern id="pt" viewBox="0 0 18 16" width="18" height="16" patternUnits="userSpaceOnUse">
  <g fill="#9bebc4">
    <use href="#p" x="2" y="14" />
    <use href="#p" x="16" y="13" />
  </g>
  <g fill="#3b5913">
    <use href="#p" x="11" y="15" />
    <use href="#p" x="12" y="15" />
    <use href="#p" x="13" y="15" />
    <use href="#p" x="14" y="14" />
    <use href="#p" x="14" y="13" />
    <use href="#p" x="10" y="14" />
    <use href="#p" x="9" y="13" />
    <use href="#p" x="8" y="14" />
    <use href="#p" x="7" y="15" />
    <use href="#p" x="6" y="15" />
    <use href="#p" x="5" y="15" />
    <use href="#p" x="4" y="14" />
    <use href="#p" x="4" y="13" />
    <use href="#p" x="5" y="10" />
    <use href="#p" x="3" y="9" />
    <use href="#p" x="1" y="10" />
    <use href="#p" x="1" y="11" />
    <use href="#p" x="2" y="12" />
    <use href="#p" x="3" y="12" />
  </g>
  <g fill="#21a573">
    <use href="#p" x="5" y="14" />
    <use href="#p" x="6" y="13" />
    <use href="#p" x="7" y="14" />
    <use href="#p" x="8" y="13" />
    <use href="#p" x="10" y="13" />
    <use href="#p" x="11" y="14" />
    <use href="#p" x="11" y="13" />
    <use href="#p" x="12" y="13" />
    <use href="#p" x="13" y="14" />
    <use href="#p" x="2" y="11" />
    <use href="#p" x="3" y="10" />
    <use href="#p" x="4" y="10" />
    <use href="#p" x="4" y="11" />
  </g>
  <g fill="#7bd097">
    <use href="#p" x="5" y="13" />
    <use href="#p" x="6" y="14" />
    <use href="#p" x="7" y="13" />
    <use href="#p" x="12" y="14" />
    <use href="#p" x="13" y="13" />
    <use href="#p" x="2" y="10" />
    <use href="#p" x="3" y="11" />
    <use href="#p" x="6" y="12" />
  </g>
  <g transform="translate(0 0)">
    <animateTransform
      attributeName="transform"
      type="translate"
      values="0 0; 18 0; 36 0; 54 0; 72 0"
      dur="1.5s"
      calcMode="discrete"
      repeatCount="indefinite"
    />
    <g transform="translate(0 0)">
      <g fill="#3b5913">
        <use href="#p" x="10" y="12" />
        <use href="#p" x="13" y="12" />
        <use href="#p" x="4" y="12" />
        <use href="#p" x="5" y="12" />
        <use href="#p" x="5" y="11" />
        <use href="#p" x="6" y="11" />
      </g>
      <g fill="#21a573">
        <use href="#p" x="7" y="12" />
      </g>
      <g fill="#af3236">
        <use href="#p" x="0" y="6" />
        <use href="#p" x="0" y="7" />
        <use href="#p" x="0" y="8" />
        <use href="#p" x="1" y="9" />
        <use href="#p" x="2" y="9" />
        <use href="#p" x="3" y="8" />
        <use href="#p" x="3" y="7" />
        <use href="#p" x="1" y="6" />
        <use href="#p" x="2" y="6" />
        <use href="#p" x="1" y="5" />
        <use href="#p" x="1" y="4" />
        <use href="#p" x="2" y="3" />
        <use href="#p" x="3" y="3" />
        <use href="#p" x="4" y="3" />
        <use href="#p" x="4" y="4" />
        <use href="#p" x="5" y="2" />
        <use href="#p" x="6" y="2" />
        <use href="#p" x="7" y="3" />
        <use href="#p" x="7" y="4" />
        <use href="#p" x="7" y="5" />
        <use href="#p" x="5" y="5" />
        <use href="#p" x="6" y="5" />
        <use href="#p" x="4" y="9" />
        <use href="#p" x="5" y="9" />
        <use href="#p" x="6" y="9" />
        <use href="#p" x="7" y="9" />
        <use href="#p" x="8" y="9" />
        <use href="#p" x="5" y="8" />
        <use href="#p" x="6" y="8" />
        <use href="#p" x="6" y="7" />
        <use href="#p" x="6" y="6" />
        <use href="#p" x="7" y="6" />
        <use href="#p" x="8" y="6" />
        <use href="#p" x="9" y="7" />
        <use href="#p" x="10" y="6" />
        <use href="#p" x="11" y="6" />
        <use href="#p" x="12" y="7" />
        <use href="#p" x="13" y="8" />
        <use href="#p" x="13" y="9" />
        <use href="#p" x="13" y="10" />
        <use href="#p" x="13" y="11" />
        <use href="#p" x="12" y="12" />
        <use href="#p" x="11" y="12" />
        <use href="#p" x="10" y="11" />
        <use href="#p" x="10" y="10" />
        <use href="#p" x="11" y="9" />
        <use href="#p" x="12" y="9" />
        <use href="#p" x="9" y="12" />
        <use href="#p" x="8" y="12" />
        <use href="#p" x="7" y="11" />
        <use href="#p" x="6" y="10" />
      </g>
      <g fill="#fac871">
        <use href="#p" x="3" y="5" />
        <use href="#p" x="3" y="6" />
        <use href="#p" x="4" y="6" />
        <use href="#p" x="4" y="5" />
        <use href="#p" x="9" y="8" />
        <use href="#p" x="9" y="9" />
        <use href="#p" x="10" y="9" />
        <use href="#p" x="10" y="8" />
      </g>
      <g fill="#f48675">
        <use href="#p" x="2" y="5" />
        <use href="#p" x="2" y="4" />
        <use href="#p" x="3" y="4" />
        <use href="#p" x="5" y="3" />
        <use href="#p" x="5" y="4" />
        <use href="#p" x="6" y="4" />
        <use href="#p" x="6" y="3" />
        <use href="#p" x="2" y="7" />
        <use href="#p" x="2" y="8" />
        <use href="#p" x="1" y="8" />
        <use href="#p" x="1" y="7" />
        <use href="#p" x="4" y="8" />
        <use href="#p" x="4" y="7" />
        <use href="#p" x="5" y="7" />
        <use href="#p" x="5" y="6" />
        <use href="#p" x="7" y="7" />
        <use href="#p" x="7" y="8" />
        <use href="#p" x="8" y="8" />
        <use href="#p" x="8" y="7" />
        <use href="#p" x="10" y="7" />
        <use href="#p" x="11" y="7" />
        <use href="#p" x="11" y="8" />
        <use href="#p" x="12" y="8" />
        <use href="#p" x="11" y="10" />
        <use href="#p" x="11" y="11" />
        <use href="#p" x="12" y="11" />
        <use href="#p" x="12" y="10" />
        <use href="#p" x="7" y="10" />
        <use href="#p" x="8" y="10" />
        <use href="#p" x="9" y="10" />
        <use href="#p" x="8" y="11" />
        <use href="#p" x="9" y="11" />
      </g>
    </g>
    <g transform="translate(-18 0)">
      <g fill="#3b5913">
        <use href="#p" x="10" y="12" />
        <use href="#p" x="13" y="12" />
        <use href="#p" x="4" y="12" />
        <use href="#p" x="5" y="12" />
        <use href="#p" x="5" y="11" />
        <use href="#p" x="6" y="11" />
        <use href="#p" x="4" y="9" />
        <use href="#p" x="6" y="10" />
        <use href="#p" x="7" y="9" />
        <use href="#p" x="7" y="11" />
        <use href="#p" x="8" y="11" />
        <use href="#p" x="9" y="12" />
        <use href="#p" x="11" y="12" />
        <use href="#p" x="12" y="12" />
        <use href="#p" x="11" y="11" />
      </g>
      <g fill="#21a573">
        <use href="#p" x="7" y="10" />
        <use href="#p" x="7" y="12" />
        <use href="#p" x="8" y="12" />
      </g>
      <g fill="#af3236">
        <use href="#p" x="1" y="6" />
        <use href="#p" x="1" y="7" />
        <use href="#p" x="1" y="8" />
        <use href="#p" x="2" y="9" />
        <use href="#p" x="4" y="8" />
        <use href="#p" x="4" y="7" />
        <use href="#p" x="2" y="6" />
        <use href="#p" x="3" y="6" />
        <use href="#p" x="2" y="5" />
        <use href="#p" x="2" y="4" />
        <use href="#p" x="3" y="3" />
        <use href="#p" x="4" y="3" />
        <use href="#p" x="5" y="3" />
        <use href="#p" x="5" y="4" />
        <use href="#p" x="6" y="2" />
        <use href="#p" x="7" y="2" />
        <use href="#p" x="8" y="3" />
        <use href="#p" x="8" y="4" />
        <use href="#p" x="8" y="5" />
        <use href="#p" x="6" y="5" />
        <use href="#p" x="7" y="5" />
        <use href="#p" x="5" y="9" />
        <use href="#p" x="6" y="9" />
        <use href="#p" x="8" y="8" />
        <use href="#p" x="9" y="8" />
        <use href="#p" x="6" y="8" />
        <use href="#p" x="7" y="8" />
        <use href="#p" x="7" y="7" />
        <use href="#p" x="7" y="6" />
        <use href="#p" x="9" y="5" />
        <use href="#p" x="10" y="6" />
        <use href="#p" x="11" y="5" />
        <use href="#p" x="12" y="5" />
        <use href="#p" x="13" y="6" />
        <use href="#p" x="14" y="7" />
        <use href="#p" x="14" y="8" />
        <use href="#p" x="14" y="9" />
        <use href="#p" x="14" y="10" />
        <use href="#p" x="13" y="11" />
        <use href="#p" x="12" y="11" />
        <use href="#p" x="11" y="10" />
        <use href="#p" x="11" y="9" />
        <use href="#p" x="12" y="8" />
        <use href="#p" x="13" y="8" />
        <use href="#p" x="10" y="11" />
        <use href="#p" x="9" y="11" />
        <use href="#p" x="8" y="10" />
      </g>
      <g fill="#fac871">
        <use href="#p" x="4" y="5" />
        <use href="#p" x="4" y="6" />
        <use href="#p" x="5" y="6" />
        <use href="#p" x="5" y="5" />
        <use href="#p" x="10" y="7" />
        <use href="#p" x="10" y="8" />
        <use href="#p" x="11" y="8" />
        <use href="#p" x="11" y="7" />
      </g>
      <g fill="#f48675">
        <use href="#p" x="3" y="5" />
        <use href="#p" x="3" y="4" />
        <use href="#p" x="4" y="4" />
        <use href="#p" x="6" y="3" />
        <use href="#p" x="6" y="4" />
        <use href="#p" x="7" y="4" />
        <use href="#p" x="7" y="3" />
        <use href="#p" x="3" y="7" />
        <use href="#p" x="3" y="8" />
        <use href="#p" x="2" y="8" />
        <use href="#p" x="2" y="7" />
        <use href="#p" x="5" y="8" />
        <use href="#p" x="5" y="7" />
        <use href="#p" x="6" y="7" />
        <use href="#p" x="6" y="6" />
        <use href="#p" x="8" y="6" />
        <use href="#p" x="8" y="7" />
        <use href="#p" x="9" y="7" />
        <use href="#p" x="9" y="6" />
        <use href="#p" x="11" y="6" />
        <use href="#p" x="12" y="6" />
        <use href="#p" x="12" y="7" />
        <use href="#p" x="13" y="7" />
        <use href="#p" x="12" y="9" />
        <use href="#p" x="12" y="10" />
        <use href="#p" x="13" y="10" />
        <use href="#p" x="13" y="9" />
        <use href="#p" x="8" y="9" />
        <use href="#p" x="9" y="9" />
        <use href="#p" x="10" y="9" />
        <use href="#p" x="9" y="10" />
        <use href="#p" x="10" y="10" />
      </g>
    </g>
    <g transform="translate(-36 0)">
      <g fill="#3b5913">
        <use href="#p" x="10" y="12" />
        <use href="#p" x="13" y="12" />
        <use href="#p" x="4" y="12" />
        <use href="#p" x="5" y="12" />
        <use href="#p" x="5" y="11" />
        <use href="#p" x="6" y="11" />
        <use href="#p" x="7" y="10" />
        <use href="#p" x="2" y="9" />
        <use href="#p" x="8" y="9" />
        <use href="#p" x="6" y="10" />
        <use href="#p" x="5" y="9" />
        <use href="#p" x="7" y="11" />
        <use href="#p" x="8" y="11" />
        <use href="#p" x="9" y="11" />
        <use href="#p" x="9" y="12" />
        <use href="#p" x="11" y="12" />
        <use href="#p" x="12" y="12" />
        <use href="#p" x="12" y="11" />
      </g>
      <g fill="#21a573">
        <use href="#p" x="8" y="10" />
        <use href="#p" x="7" y="12" />
        <use href="#p" x="8" y="12" />
      </g>
      <g fill="#af3236">
        <use href="#p" x="2" y="6" />
        <use href="#p" x="2" y="7" />
        <use href="#p" x="2" y="8" />
        <use href="#p" x="4" y="9" />
        <use href="#p" x="5" y="8" />
        <use href="#p" x="5" y="7" />
        <use href="#p" x="3" y="6" />
        <use href="#p" x="4" y="6" />
        <use href="#p" x="3" y="5" />
        <use href="#p" x="3" y="4" />
        <use href="#p" x="4" y="3" />
        <use href="#p" x="5" y="3" />
        <use href="#p" x="6" y="3" />
        <use href="#p" x="6" y="4" />
        <use href="#p" x="7" y="2" />
        <use href="#p" x="8" y="2" />
        <use href="#p" x="9" y="3" />
        <use href="#p" x="9" y="4" />
        <use href="#p" x="9" y="5" />
        <use href="#p" x="7" y="5" />
        <use href="#p" x="8" y="5" />
        <use href="#p" x="6" y="9" />
        <use href="#p" x="7" y="9" />
        <use href="#p" x="9" y="8" />
        <use href="#p" x="10" y="8" />
        <use href="#p" x="7" y="8" />
        <use href="#p" x="8" y="8" />
        <use href="#p" x="8" y="7" />
        <use href="#p" x="8" y="6" />
        <use href="#p" x="10" y="5" />
        <use href="#p" x="11" y="6" />
        <use href="#p" x="12" y="5" />
        <use href="#p" x="13" y="5" />
        <use href="#p" x="14" y="6" />
        <use href="#p" x="15" y="7" />
        <use href="#p" x="15" y="8" />
        <use href="#p" x="15" y="9" />
        <use href="#p" x="15" y="10" />
        <use href="#p" x="14" y="11" />
        <use href="#p" x="13" y="11" />
        <use href="#p" x="12" y="10" />
        <use href="#p" x="12" y="9" />
        <use href="#p" x="13" y="8" />
        <use href="#p" x="14" y="8" />
        <use href="#p" x="11" y="11" />
        <use href="#p" x="10" y="11" />
        <use href="#p" x="9" y="10" />
      </g>
      <g fill="#fac871">
        <use href="#p" x="5" y="5" />
        <use href="#p" x="5" y="6" />
        <use href="#p" x="6" y="6" />
        <use href="#p" x="6" y="5" />
        <use href="#p" x="11" y="7" />
        <use href="#p" x="11" y="8" />
        <use href="#p" x="12" y="8" />
        <use href="#p" x="12" y="7" />
      </g>
      <g fill="#f48675">
        <use href="#p" x="4" y="5" />
        <use href="#p" x="4" y="4" />
        <use href="#p" x="5" y="4" />
        <use href="#p" x="7" y="3" />
        <use href="#p" x="7" y="4" />
        <use href="#p" x="8" y="4" />
        <use href="#p" x="8" y="3" />
        <use href="#p" x="4" y="7" />
        <use href="#p" x="4" y="8" />
        <use href="#p" x="3" y="8" />
        <use href="#p" x="3" y="7" />
        <use href="#p" x="6" y="8" />
        <use href="#p" x="6" y="7" />
        <use href="#p" x="7" y="7" />
        <use href="#p" x="7" y="6" />
        <use href="#p" x="9" y="6" />
        <use href="#p" x="9" y="7" />
        <use href="#p" x="10" y="7" />
        <use href="#p" x="10" y="6" />
        <use href="#p" x="12" y="6" />
        <use href="#p" x="13" y="6" />
        <use href="#p" x="13" y="7" />
        <use href="#p" x="14" y="7" />
        <use href="#p" x="13" y="9" />
        <use href="#p" x="13" y="10" />
        <use href="#p" x="14" y="10" />
        <use href="#p" x="14" y="9" />
        <use href="#p" x="9" y="9" />
        <use href="#p" x="10" y="9" />
        <use href="#p" x="11" y="9" />
        <use href="#p" x="10" y="10" />
        <use href="#p" x="11" y="10" />
      </g>
    </g>
    <g transform="translate(-54 0)">
      <g fill="#3b5913">
        <use href="#p" x="10" y="12" />
        <use href="#p" x="13" y="12" />
        <use href="#p" x="4" y="12" />
        <use href="#p" x="5" y="12" />
        <use href="#p" x="5" y="11" />
        <use href="#p" x="6" y="11" />
        <use href="#p" x="4" y="8" />
        <use href="#p" x="2" y="9" />
        <use href="#p" x="4" y="9" />
        <use href="#p" x="7" y="9" />
        <use href="#p" x="6" y="10" />
        <use href="#p" x="8" y="10" />
        <use href="#p" x="11" y="10" />
        <use href="#p" x="5" y="9" />
        <use href="#p" x="7" y="11" />
        <use href="#p" x="8" y="11" />
        <use href="#p" x="10" y="11" />
        <use href="#p" x="11" y="11" />
        <use href="#p" x="9" y="12" />
        <use href="#p" x="11" y="12" />
        <use href="#p" x="12" y="12" />
        <use href="#p" x="12" y="11" />
      </g>
      <g fill="#21a573">
        <use href="#p" x="6" y="9" />
        <use href="#p" x="9" y="11" />
        <use href="#p" x="7" y="10" />
        <use href="#p" x="7" y="12" />
        <use href="#p" x="8" y="12" />
      </g>
      <g fill="#af3236">
        <use href="#p" x="1" y="5" />
        <use href="#p" x="1" y="6" />
        <use href="#p" x="1" y="7" />
        <use href="#p" x="2" y="8" />
        <use href="#p" x="3" y="8" />
        <use href="#p" x="4" y="7" />
        <use href="#p" x="4" y="6" />
        <use href="#p" x="2" y="5" />
        <use href="#p" x="3" y="5" />
        <use href="#p" x="2" y="4" />
        <use href="#p" x="2" y="3" />
        <use href="#p" x="3" y="2" />
        <use href="#p" x="4" y="2" />
        <use href="#p" x="5" y="2" />
        <use href="#p" x="5" y="3" />
        <use href="#p" x="6" y="1" />
        <use href="#p" x="7" y="1" />
        <use href="#p" x="8" y="2" />
        <use href="#p" x="8" y="3" />
        <use href="#p" x="8" y="4" />
        <use href="#p" x="6" y="4" />
        <use href="#p" x="7" y="4" />
        <use href="#p" x="5" y="8" />
        <use href="#p" x="6" y="8" />
        <use href="#p" x="8" y="7" />
        <use href="#p" x="9" y="7" />
        <use href="#p" x="6" y="7" />
        <use href="#p" x="7" y="7" />
        <use href="#p" x="7" y="6" />
        <use href="#p" x="7" y="5" />
        <use href="#p" x="9" y="4" />
        <use href="#p" x="10" y="5" />
        <use href="#p" x="11" y="4" />
        <use href="#p" x="12" y="4" />
        <use href="#p" x="13" y="5" />
        <use href="#p" x="14" y="6" />
        <use href="#p" x="14" y="7" />
        <use href="#p" x="14" y="8" />
        <use href="#p" x="14" y="9" />
        <use href="#p" x="13" y="10" />
        <use href="#p" x="12" y="10" />
        <use href="#p" x="11" y="9" />
        <use href="#p" x="11" y="8" />
        <use href="#p" x="12" y="7" />
        <use href="#p" x="13" y="7" />
        <use href="#p" x="10" y="10" />
        <use href="#p" x="9" y="10" />
        <use href="#p" x="8" y="9" />
        <use href="#p" x="7" y="8" />
      </g>
      <g fill="#fac871">
        <use href="#p" x="4" y="4" />
        <use href="#p" x="4" y="5" />
        <use href="#p" x="5" y="5" />
        <use href="#p" x="5" y="4" />
        <use href="#p" x="10" y="6" />
        <use href="#p" x="10" y="7" />
        <use href="#p" x="11" y="7" />
        <use href="#p" x="11" y="6" />
      </g>
      <g fill="#f48675">
        <use href="#p" x="3" y="4" />
        <use href="#p" x="3" y="3" />
        <use href="#p" x="4" y="3" />
        <use href="#p" x="6" y="2" />
        <use href="#p" x="6" y="3" />
        <use href="#p" x="7" y="3" />
        <use href="#p" x="7" y="2" />
        <use href="#p" x="3" y="6" />
        <use href="#p" x="3" y="7" />
        <use href="#p" x="2" y="7" />
        <use href="#p" x="2" y="6" />
        <use href="#p" x="5" y="7" />
        <use href="#p" x="5" y="6" />
        <use href="#p" x="6" y="6" />
        <use href="#p" x="6" y="5" />
        <use href="#p" x="8" y="5" />
        <use href="#p" x="8" y="6" />
        <use href="#p" x="9" y="6" />
        <use href="#p" x="9" y="5" />
        <use href="#p" x="11" y="5" />
        <use href="#p" x="12" y="5" />
        <use href="#p" x="12" y="6" />
        <use href="#p" x="13" y="6" />
        <use href="#p" x="12" y="8" />
        <use href="#p" x="12" y="9" />
        <use href="#p" x="13" y="9" />
        <use href="#p" x="13" y="8" />
        <use href="#p" x="8" y="8" />
        <use href="#p" x="9" y="8" />
        <use href="#p" x="10" y="8" />
        <use href="#p" x="9" y="9" />
        <use href="#p" x="10" y="9" />
      </g>
    </g>
    <g transform="translate(-72 0)">
      <g fill="#3b5913">
        <use href="#p" x="10" y="12" />
        <use href="#p" x="13" y="12" />
        <use href="#p" x="4" y="12" />
        <use href="#p" x="5" y="12" />
        <use href="#p" x="5" y="11" />
        <use href="#p" x="6" y="11" />
        <use href="#p" x="3" y="8" />
        <use href="#p" x="2" y="9" />
        <use href="#p" x="4" y="9" />
        <use href="#p" x="7" y="9" />
        <use href="#p" x="8" y="10" />
        <use href="#p" x="11" y="10" />
        <use href="#p" x="5" y="9" />
        <use href="#p" x="7" y="11" />
        <use href="#p" x="8" y="11" />
        <use href="#p" x="10" y="11" />
        <use href="#p" x="11" y="11" />
        <use href="#p" x="9" y="12" />
        <use href="#p" x="11" y="12" />
        <use href="#p" x="12" y="12" />
        <use href="#p" x="12" y="11" />
      </g>
      <g fill="#21a573">
        <use href="#p" x="9" y="11" />
        <use href="#p" x="6" y="10" />
        <use href="#p" x="7" y="12" />
        <use href="#p" x="8" y="12" />
      </g>
      <g fill="#af3236">
        <use href="#p" x="0" y="5" />
        <use href="#p" x="0" y="6" />
        <use href="#p" x="0" y="7" />
        <use href="#p" x="1" y="8" />
        <use href="#p" x="2" y="8" />
        <use href="#p" x="3" y="7" />
        <use href="#p" x="3" y="6" />
        <use href="#p" x="1" y="5" />
        <use href="#p" x="2" y="5" />
        <use href="#p" x="1" y="4" />
        <use href="#p" x="1" y="3" />
        <use href="#p" x="2" y="2" />
        <use href="#p" x="3" y="2" />
        <use href="#p" x="4" y="2" />
        <use href="#p" x="4" y="3" />
        <use href="#p" x="5" y="1" />
        <use href="#p" x="6" y="1" />
        <use href="#p" x="7" y="2" />
        <use href="#p" x="7" y="3" />
        <use href="#p" x="7" y="4" />
        <use href="#p" x="5" y="4" />
        <use href="#p" x="6" y="4" />
        <use href="#p" x="4" y="8" />
        <use href="#p" x="5" y="8" />
        <use href="#p" x="6" y="8" />
        <use href="#p" x="7" y="8" />
        <use href="#p" x="8" y="8" />
        <use href="#p" x="7" y="7" />
        <use href="#p" x="8" y="7" />
        <use href="#p" x="5" y="7" />
        <use href="#p" x="6" y="7" />
        <use href="#p" x="6" y="6" />
        <use href="#p" x="6" y="5" />
        <use href="#p" x="7" y="5" />
        <use href="#p" x="8" y="5" />
        <use href="#p" x="9" y="6" />
        <use href="#p" x="10" y="5" />
        <use href="#p" x="11" y="5" />
        <use href="#p" x="12" y="6" />
        <use href="#p" x="13" y="7" />
        <use href="#p" x="13" y="8" />
        <use href="#p" x="13" y="9" />
        <use href="#p" x="13" y="10" />
        <use href="#p" x="12" y="11" />
        <use href="#p" x="11" y="11" />
        <use href="#p" x="10" y="10" />
        <use href="#p" x="10" y="9" />
        <use href="#p" x="11" y="8" />
        <use href="#p" x="12" y="8" />
        <use href="#p" x="9" y="11" />
        <use href="#p" x="8" y="11" />
        <use href="#p" x="7" y="10" />
        <use href="#p" x="6" y="9" />
      </g>
      <g fill="#fac871">
        <use href="#p" x="3" y="4" />
        <use href="#p" x="3" y="5" />
        <use href="#p" x="4" y="5" />
        <use href="#p" x="4" y="4" />
        <use href="#p" x="9" y="7" />
        <use href="#p" x="9" y="8" />
        <use href="#p" x="10" y="8" />
        <use href="#p" x="10" y="7" />
      </g>
      <g fill="#f48675">
        <use href="#p" x="2" y="4" />
        <use href="#p" x="2" y="3" />
        <use href="#p" x="3" y="3" />
        <use href="#p" x="5" y="2" />
        <use href="#p" x="5" y="3" />
        <use href="#p" x="6" y="3" />
        <use href="#p" x="6" y="2" />
        <use href="#p" x="2" y="6" />
        <use href="#p" x="2" y="7" />
        <use href="#p" x="1" y="7" />
        <use href="#p" x="1" y="6" />
        <use href="#p" x="4" y="7" />
        <use href="#p" x="4" y="6" />
        <use href="#p" x="5" y="6" />
        <use href="#p" x="5" y="5" />
        <use href="#p" x="7" y="6" />
        <use href="#p" x="7" y="7" />
        <use href="#p" x="8" y="7" />
        <use href="#p" x="8" y="6" />
        <use href="#p" x="10" y="6" />
        <use href="#p" x="11" y="6" />
        <use href="#p" x="11" y="7" />
        <use href="#p" x="12" y="7" />
        <use href="#p" x="11" y="9" />
        <use href="#p" x="11" y="10" />
        <use href="#p" x="12" y="10" />
        <use href="#p" x="12" y="9" />
        <use href="#p" x="7" y="9" />
        <use href="#p" x="8" y="9" />
        <use href="#p" x="9" y="9" />
        <use href="#p" x="8" y="10" />
        <use href="#p" x="9" y="10" />
      </g>
    </g>
  </g>
  </pattern>
    </defs>
  
  <rect fill="#73cea5" y="12" width="144" height="4" />
  <rect fill="url(#pt)" width="144" height="16" />
</svg>