<svg aria-hidden="true" aria-focusable="false" xmlns="http://www.w3.org/2000/svg" viewBox="-50 -50 100 100" width="100" height="100">
  <style>
    .tilt {
      animation: tilt 10s ease-in-out infinite alternate;
      transform: rotate(-20deg);
    }
    @keyframes tilt {
      20%, 100% {
        transform: rotate(25deg);
      }
    }
  </style>
  <g fill="hsl(210, 90%, 62%)" stroke="hsl(220, 100%, 8%)" stroke-linecap="round" stroke-linejoin="round">
    <g stroke-width="3">
      <path stroke-dasharray="84 20 84" d="M 0 -2 v 4 l 24 36 a 4 4 0 0 1 -8 8 l -16 -24 -16 24 a 4 4 0 0 1 -8 -8 l 24 -36" />
      <path d="M 5 19 v 24 a 5 5 0 0 1 -10 0 v -24" />
      <path d="M 0 -2 a 8 8 0 0 1 0 -16 8 8 0 0 1 0 16" />
    </g>

    <g transform="translate(0 -17)">
      <g class="tilt">
        <g transform="translate(26 0)">
          <g fill="hsl(208, 95%, 75%)">
            <path stroke-width="7.5" transform="translate(-63 0) scale(0.4)" d="M 0 -13 l -20 1 v 24 l 20 1" />
            <path stroke-width="5.45" transform="translate(-51 0) scale(0.55)" d="M 0 -13 l -20 1 v 24 l 20 1" />
            <path stroke-width="4.6" transform="translate(-37 0) scale(0.65)" d="M 0 -13 l -20 1 v 24 l 20 1" />
            <path stroke-width="3.75" transform="translate(-20 0) scale(0.8)" d="M 0 -13 l -20 1 v 24 l 20 1" />
            <g stroke-width="3">
              <path d="M 0 -13 l -20 1 v 24 l 20 1" />
              <path d="M 12 -14 a 16.5 16.5 0 0 1 0 28" />
              <rect fill="hsl(210, 90%, 62%)" y="-17" width="12" height="34" rx="6" />
            </g>
          </g>
        </g>
      </g>
    </g>
  </g>
</svg>