<svg xmlns="http://www.w3.org/2000/svg" viewBox="-86 -86 172 172"><circle fill="hsl(40 23% 99%)" stroke="hsl(40 10% 35%)" stroke-width="12" r="80" /><g fill="none" stroke="hsl(43 13% 90%)" stroke-linecap="round" stroke-linejoin="round"><g stroke-width="6"><path d="M 56 0 66 0" /><path transform="rotate(90)" d="M 56 0 66 0" /><path transform="rotate(180)" d="M 56 0 66 0" /><path transform="rotate(270)" d="M 56 0 66 0" /></g><g stroke-width="4"><path transform="rotate(30)" d="M 55 0 67 0" /><path transform="rotate(60)" d="M 55 0 67 0" /><path transform="rotate(120)" d="M 55 0 67 0" /><path transform="rotate(150)" d="M 55 0 67 0" /><path transform="rotate(210)" d="M 55 0 67 0" /><path transform="rotate(240)" d="M 55 0 67 0" /><path transform="rotate(300)" d="M 55 0 67 0" /><path transform="rotate(330)" d="M 55 0 67 0" /></g></g><g fill="hsl(41 8% 48%)"><path transform="rotate(90)" d="M -4 -11 -4 -30 A 4 4 0 0 1 4 -30 L 4 -11" /><path transform="rotate(217.5)" d="M -3.5 -11 -3.5 -42 A 3.5 3.5 0 0 1 3.5 -42 L 3.5 -11" /></g><circle fill="hsl(40 10% 35%)" r="8" /></svg>