<svg xmlns="http://www.w3.org/2000/svg" viewBox="-50 -50 100 100" width="40" height="40">
  <path fill="currentColor" d="M-50-50V50.8h38.4c-8.88 0-16.08-7.2-16.08-16.08v-5.04h10.08v5.04c0 3.36 2.64 6 6 6s6-2.64 6-6V.88H4.48v33.84c0 8.88-7.2 16.08-16.08 16.08H9.52V40.72H24.64c2.88 0 5.04-2.208 5.04-5.04s-2.184-5.04-5.04-5.04c-8.4 0-15.12-6.72-15.12-15.12S16.24.4 24.64.4h13.2v10.08h-13.2c-2.88 0-5.04 2.208-5.04 5.04s2.184 5.04 5.04 5.04c8.4 0 15.12 6.72 15.12 15.12S33.04 50.8 24.64 50.8h24V-50h-100.8z"/>
</svg>