<svg xmlns="http://www.w3.org/2000/svg" viewBox="-50 -50 100 100" width="40" height="40">
  <g fill="currentColor" stroke="currentColor" stroke-width="8">
    <path d="M 0 0 v 36 a 5 5 0 0 1 0 10 5 5 0 0 1 0 -10 v -72 a 5 5 0 0 1 0 -10 5 5 0 0 1 0 10" />
    <path transform="rotate(45)" d="M 0 0 v 36 a 5 5 0 0 1 0 10 5 5 0 0 1 0 -10 v -72 a 5 5 0 0 1 0 -10 5 5 0 0 1 0 10" />
    <path transform="rotate(90)" d="M 0 0 v 36 a 5 5 0 0 1 0 10 5 5 0 0 1 0 -10 v -72 a 5 5 0 0 1 0 -10 5 5 0 0 1 0 10" />
    <path transform="rotate(135)" d="M 0 0 v 36 a 5 5 0 0 1 0 10 5 5 0 0 1 0 -10 v -72 a 5 5 0 0 1 0 -10 5 5 0 0 1 0 10" />
  </g>
</svg>