<svg aria-hidden="true" aria-focusable="false" xmlns="http://www.w3.org/2000/svg" viewBox="-50 -50 100 100" width="1em" height="1em">
  <g fill="none" stroke="currentColor" stroke-linecap="round" stroke-linejoin="round">
    <g stroke-width="8">
      <path d="M -42 30 h 84 a 4 4 0 0 1 0 8 h -84 a 4 4 0 0 1 0 -8" />
      <path d="M -38 30 v -64" />
      <path transform="scale(-1 1)" d="M -38 30 v -64" />
    </g>
    <g stroke-width="6">
      <g>
        <circle cx="-4" cy="-18" r="7" />
        <circle cx="17" cy="-18" r="7" />
        <path d="M -38 -18 h 25 m 18 0 h 3 m 18 0 h 10"/>
      </g>
      <g transform="translate(0 25) scale(-1 1)">
        <circle cx="-4" cy="-18" r="7" />
        <circle cx="17" cy="-18" r="7" />
        <path d="M -38 -18 h 25 m 18 0 h 3 m 18 0 h 10"/>
      </g>
    </g>
  </g>
</svg>