<svg aria-hidden="true" aria-focusable="false" xmlns="http://www.w3.org/2000/svg" viewBox="-50 -50 100 100" width="1em" height="1em">
  <g fill="none" stroke="currentColor" stroke-linejoin="round" stroke-linecap="round">
    <path stroke-width="8" d="M -46 -20 a 8 8 0 0 1 8 -8 h 76 a 8 8 0 0 1 8 8 v 54 a 8 8 0 0 1 -8 8 h -76 a 8 8 0 0 1 -8 -8 z" />
    <g stroke-width="7">
      <path d="M -46 -8 a 80 80 0 0 0 92 0" />
      <path d="M -20 -28 v -8 a 8 8 0 0 1 8 -8 h 24 a 8 8 0 0 1 8 8 v 8" />
      <path d="M -8 4 h 16 v 16 h -16 z" />
    </g>
  </g>
</svg>