<svg aria-hidden="true" aria-focusable="false" xmlns="http://www.w3.org/2000/svg" viewBox="-50 -50 100 100" width="1em" height="1em">
  <g fill="none" stroke="currentColor" stroke-linejoin="round" stroke-linecap="round">
    <path stroke-width="8" d="M -46 -32 a 8 8 0 0 1 8 -8 h 76 a 8 8 0 0 1 8 8 v 54 a 8 8 0 0 1 -8 8 h -16 m -44 0 h -16 a 8 8 0 0 1 -8 -8 v -54" />
    <g stroke-width="7">
        <path d="M -25 -18 h 50" />
        <circle cx="0" cy="13" r="15" />
        <path d="M -10 26 v 16.5 l 10 -5 10 5 v -16.5"/>
    </g>
  </g>
  <g fill="currentColor" stroke="none">
    <circle r="8" cx="-40" cy="-34"/>
    <circle transform="scale(-1 1)" r="8" cx="-40" cy="-34"/>
    <circle r="8" cx="-40" cy="24"/>
    <circle transform="scale(-1 1)" r="8" cx="-40" cy="24"/>
  </g>
</svg>