<svg aria-hidden="true" aria-focusable="false" xmlns="http://www.w3.org/2000/svg" viewBox="-50 -50 100 100" width="1em" height="1em">
  <g fill="currentColor" stroke="none">
    <path d="M-6.28-45A54.667 54.667 0 0111.8-25h10.7c4.261 0 7.5 3.239 7.5 7.5S26.761-10 22.5-10h-5.451C17.664-6.755 18-3.416 18 0s-.336 6.755-.951 10H22.5c4.261 0 7.5 3.239 7.5 7.5S26.761 25 22.5 25H11.8A54.599 54.599 0 01-6.28 45H22.5C37.57 45 50 32.57 50 17.5c0-6.656-2.521-12.72-6.527-17.5C47.48-4.783 50-10.84 50-17.5 50-32.57 37.57-45 22.5-45H-6.28z"/>
    <path d="M-50-45v20h10c13.93 0 25 11.07 25 25s-11.07 25-25 25h-10v20h10C-15.27 45 5 24.73 5 0s-20.27-45-45-45z"/>
  </g>
</svg>