<svg aria-hidden="true" aria-focusable="false" xmlns="http://www.w3.org/2000/svg" viewBox="-50 -50 100 100" width="1em" height="1em">
  <g fill="none" stroke="currentColor" stroke-width="8" stroke-linecap="round" stroke-linejoin="round">
    <path d="M -10.5 12 a 21 21 0 1 1 21 0 v 5 a 4 4 0 0 1 -4 4 h -13 a 4 4 0 0 1 -4 -4 v -5"/>
    <g stroke-width="7">
      <path d="M -8 31 h 16"/>
      <path d="M -8 40.5 h 16"/>
      <path fill="currentColor" d="M -6 40.5 a 6 6 0 0 0 12 0"/>
    </g>
    <g transform="translate(0 -6)" stroke-width="6">
      <path transform="rotate(0) translate(0 -34)" d="M 0 0 v -7" />
      <path transform="rotate(45) translate(0 -34.5)" d="M 0 0 v -6.5" />
      <path transform="rotate(-45) translate(0 -34.5)" d="M 0 0 v -6.5" />
      <path transform="rotate(90) translate(0 -35)" d="M 0 0 v -6" />
      <path transform="rotate(-90) translate(0 -35)" d="M 0 0 v -6" />
      <path transform="rotate(135) translate(0 -35.5)" d="M 0 0 v -5.5" />
      <path transform="rotate(-135) translate(0 -35.5)" d="M 0 0 v -5.5" />
    </g>
  </g>
</svg>