<svg aria-hidden="true" aria-focusable="false" xmlns="http://www.w3.org/2000/svg" viewBox="-50 -50 100 100" width="1em" height="1em">
  <g fill="currentColor">
    <path d="m-6 -47.5s-25 0-25 12.5v14h30v2.5h-38c-11 0-11 20-11 20s0 20 11 20h17.5v-12.5a10 10 0 0 1 10-10h11.5 9a10 10 0 0 0 10-10v-24c0-12.5-25-12.5-25-12.5zm-13 8.5a5 5 0 0 1 5 5 5 5 0 0 1-5 5 5 5 0 0 1-5-5 5 5 0 0 1 5-5z" />
    <path d="m21.5 -21.5v12.5a10 10 0 0 1-10 10h-11.5-9a10 10 0 0 0-10 10v24c0 12.5 25 12.5 25 12.5s25 0 25-12.5v-14h-30v-2.5h38c11 0 11-20 11-20s0-20-11-20h-17.5zm-2.5 50.5a5 5 0 0 1 5 5 5 5 0 0 1-5 5 5 5 0 0 1-5-5 5 5 0 0 1 5-5z" />
  </g>
</svg>
