<svg aria-hidden="true" aria-focusable="false" xmlns="http://www.w3.org/2000/svg" viewBox="-50 -50 100 100" width="1em" height="1em">
  <g fill="currentColor" stroke="none">
    <path d="M-27.916-32.012a5 5 0 00-.526.028 5 5 0 00-2.05.614c-5.334 1.568-9.465 6.062-11.282 11.877a5 5 0 00-.111.427l-6.998 32.001c-1.464 5.929-1.671 11.25 1.223 15.593 2.876 4.315 8.265 5.798 13.774 5.46 5.703-.052 9.108-3.662 12.086-6.143 3-2.5 5.576-3.84 5.8-3.84h32c.223 0 2.8 1.34 5.801 3.84 2.979 2.48 6.383 6.09 12.086 6.143 5.51.34 10.898-1.146 13.774-5.46 2.895-4.343 2.688-9.664 1.223-15.593l-.032-.144-6.967-31.858a5 5 0 00-.065-.27c-.983-3.538-2.434-6.595-4.786-8.947-2.351-2.352-5.714-3.717-9.036-3.717h-55.692a5 5 0 00-.213-.014zm7.914 15.013h5c.554 0 1 .445 1 1v8.5h8.5c.554 0 1 .445 1 1v5c0 .554-.446 1-1 1h-8.5V8c0 .554-.446 1-1 1h-5c-.554 0-1-.446-1-1V-.5h-8.5c-.554 0-1-.446-1-1v-5c0-.555.446-1 1-1h8.5V-16c0-.555.446-1 1-1zM17-17a5 5 0 015 5.005 5 5 0 01-5 5 5 5 0 01-5.005-5A5 5 0 0117-17zM24.997-.997a5 5 0 015 5 5 5 0 01-5 5 5 5 0 01-5-5 5 5 0 015-5z"/>
  </g>
</svg>