<svg aria-hidden="true" aria-focusable="false" xmlns="http://www.w3.org/2000/svg" viewBox="-50 -50 100 100" width="1em" height="1em">
  <g fill="none" stroke="currentColor" stroke-linecap="round" stroke-linejoin="round">
    <g stroke-width="8">
      <path d="M 36 -44 h -54 a 10 10 0 0 0 -10 10 v 15 m 30 63 h 34 a 10 10 0 0 0 10 -10 v -68 a 10 10 0 0 0 -10 -10"/>
    </g>
    <g stroke-width="7">
      <path d="M -32.5 32 h -2 a 12 12 0 0 1 0 -24 a 17 17 0 0 1 34 0 h 2 a 12 12 0 0 1 0 24"/>
      <path d="M -15.5 38 v -20 l -8 8 m 16 0 l -8 -8" />
      <path d="M -12 -22 h 40"/>
      <path d="M 10 -2 h 18"/>
      <path d="M 24 18 h 4"/>
    </g>
  </g>
</svg>