<svg aria-hidden="true" aria-focusable="false" xmlns="http://www.w3.org/2000/svg" viewBox="-50 -50 100 100" width="1em" height="1em">
  <g fill="none" stroke="currentColor" stroke-linecap="round" stroke-linejoin="round">
    <g stroke-width="8">
      <path d="M -26 -19 h -20 v -6 a 12 12 0 0 1 24 0 v 50 a 12 12 0 0 0 24 0 v -5 h 44 v 5 a 12 12 0 0 1 -12 12 h -44 a 12 12 0 0 1 -12 -12" />
      <path d="M -34 -37 h 44 a 12 12 0 0 1 12 12 v 45 h -20 v 5 a 12 12 0 0 1 -24 0 v -50 a 12 12 0 0 0 -12 -12" />
    </g>
    <g stroke-width="6">
      <path d="M -10 -20 h 20" />
      <path d="M -10 -8 h 10" />
      <path d="M -10 4 h 15" />
      <path d="M -10 16 h 5" />
    </g>
  </g>
</svg>