<svg
					width="1em"
					height="1em"
					xmlns="http://www.w3.org/2000/svg"
					viewBox="0 0 16 16"
					shape-rendering="crispEdges"
				>
					<g>
						<g transform="translate(0 0.5)">
							<path
								stroke="#0c1019"
								d="M0 0h2M5 0h6M14 0h4M21 0h6M30 0h2M0 1h1M2 1h4M10 1h4M15 1h2M18 1h4M26 1h4M31 1h1M0 2h1M4 2h1M11 2h1M15 2h6M27 2h1M31 2h1M1 3h3M12 3h1M14 3h1M17 3h1M19 3h1M28 3h1M30 3h1M1 4h1M3 4h2M11 4h3M17 4h1M19 4h2M27 4h3M1 5h1M3 5h1M5 5h6M12 5h1M17 5h1M19 5h1M21 5h6M28 5h1M1 6h1M3 6h1M6 6h1M9 6h1M12 6h1M17 6h1M19 6h2M22 6h1M25 6h1M28 6h1M1 7h1M3 7h1M6 7h1M9 7h1M12 7h1M16 7 h 1M20 7h1M22 7h1M25 7h1M28 7h1M0 8h2M3 8h2M8 8h7M16 8h5M26 8h2M0 9h1M4 9h2M8 9h1M14 9h1M16 9h1M19 9h3M24 9h7M0 10h4M8 10h1M14 10h1M17 10h2M19 10h1M24 10h1M30 10h1M0 11h1M3 11h4M8 11h2M13 11h2M18 11h5M24 11h1M30 11h1M1 12h2M4 12h1M9 12h2M12 12h2M18 12h1M20 12h1M24 12h2M29 12h2M2 13h1M4 13h1M10 13h3M18 13h1M20 13h1M25 13h2M28 13h2M2 14h6M11 14h1M19 14h2M24 14h5M3 15h1M8 15h4M20 15h4M28 15h1"
							/>
							<path
								stroke="#f5be86"
								d="M1 1h1M6 1h4M14 1h1M17 1h1M22 1h4M30 1h1M1 2h3M5 2h1M10 2h1M12 2h3M21 2h1M26 2h1M28 2h3M4 3h1M11 3h1M13 3h1M18 3 h1M20 3h1M27 3h1M29 3h1M2 4h1M5 4h6M18 4h1M21 4h6M2 5h1M18 5h1M2 6h1M5 6h1M7 6h2M10 6h1M18 6h1M21 6h1M23 6h2M26 6h1M2 7h1M5 7h1M7 7h2M10 7h1M17 7h3M21 7h1M23 7h2M26 7h1M2 8h1M6 8h2M22 8h4M1 9h3M9 9h2M12 9h2M17 9h2M10 10h3M25 10h2M28 10h2M1 11h2M7 11h1M11 11h1M23 11h1M26 11h3M3 12h1M11 12h1M19 12h1M27 12h1M3 13h1M19 13h1M27 13h1M4 15h4M24 15h4"
							/>
							<path
								stroke="#035f90"
								d="M6 2h4M22 2h4M5 3h6M21 3h6M4 5h1M11 5h1M20 5h1M27 5h1M4 6h1M11 6h1M27 6h1M4 7h1M11 7h1M27 7h1M5 8h1M21 8h1M6 9h2M11 9h1M22 9h2M4 10h4M9 10h1M13 10h1M20 10h4M27 10h1M10 11h1M12 11h1M25 11h1M29 11h1M5 12h4M21 12h3M26 12h1M28 12h1M5 13h5M21 13h4M8 14h3M21 14h3"
							/>
						</g>
					</g>
				</svg>