<svg xmlns="http://www.w3.org/2000/svg" viewBox="-50 -50 100 100" width="42" height="42">
  <g fill="currentColor" stroke="currentColor" stroke-width="5" stroke-linecap="round" stroke-linejoin="round">
    <path d="M -10 0 a 10 10 0 0 0 10 -10 10 10 0 0 0 10 10 10 10 0 0 0 -10 10 10 10 0 0 0 -10 -10" />
    <path d="M -10 0 a 10 10 0 0 0 10 -10 10 10 0 0 0 10 10 10 10 0 0 0 -10 10 10 10 0 0 0 -10 -10" transform="translate(-20 -20) scale(0.9)"/>
    <path d="M -10 0 a 10 10 0 0 0 10 -10 10 10 0 0 0 10 10 10 10 0 0 0 -10 10 10 10 0 0 0 -10 -10" transform="translate(20 -25) scale(0.5)"/>
    <path d="M -10 0 a 10 10 0 0 0 10 -10 10 10 0 0 0 10 10 10 10 0 0 0 -10 10 10 10 0 0 0 -10 -10" transform="translate(15 25) scale(0.8)"/>
    <path d="M -10 0 a 10 10 0 0 0 10 -10 10 10 0 0 0 10 10 10 10 0 0 0 -10 10 10 10 0 0 0 -10 -10" transform="translate(-15 20) scale(0.4)"/>
  </g>
</svg>