<svg xmlns="http://www.w3.org/2000/svg" viewBox="-35 -40 80 80"><defs><path stroke-width="5" stroke-linecap="round" stroke-linejoin="round" id="b" d="M 0 -30 a 5 5 0 0 0 5 -5 5 5 0 0 1 -5 5 30 30 0 0 0 0 60 5 5 0 0 1 5 5 5 5 0 0 0 -5 -5 18 16 0 0 1 -14 -26 v -8 a 18 16 0 0 1 14 -26" /><path id="h" d="M 0 0 l 3 -3 3 3 -3 3z" /><mask id="mb"><use href="#b" fill="white" stroke="white" opacity="0.5" /><use href="#b" stroke="black" x="-1.5" transform="scale(1.03)" /><use href="#h" fill="white" opacity="0.5" x="-1.2" transform="translate(-26 0) scale(1.2)" /></mask><mask id="mh"><use href="#b" fill="white" stroke="white" /><use href="#h" x="-26" /></mask></defs><g fill="#3c413a" stroke="#3c413a" stroke-linecap="round" stroke-linejoin="round"><g transform="translate(36 0)"><g transform="rotate(-150)"><path d="M 0 -40 l 3 8 -3 2 -3 -2z v 40" /><path d="M 0 0 l 3 3 v 6 l -3 -3 -3 3 v -6z" /></g></g></g><path fill="none" stroke="#6c413a" d="M 1 -30 v 60" /><g mask="url(#mh)"><use href="#b" fill="#df724b" stroke="#df724b" /><use href="#b" stroke="black" mask="url(#mb)" /></g></svg>