<svg xmlns="http://www.w3.org/2000/svg" viewBox="-50 -50 100 100"><defs><pattern id="moon-pattern-star" viewBox="-25 -25 50 50" width="1" height="1"><path d="M 14.265847744427303 4.635254915624211 Q 20.57248383023656 28.31559480312316 9.18485099360515e-16 15 Q -20.572483830236557 28.31559480312316 -14.265847744427303 4.635254915624213 Q -33.28697807033037 -10.81559480312317 -8.816778784387099 -12.13525491562421 Q -6.429395695523604e-15 -35 8.816778784387093 -12.135254915624213 Q 33.28697807033037 -10.815594803123167 14.265847744427303 4.635254915624211" fill="#ffdb47"></path></pattern></defs><g fill="url(#moon-pattern-star)"><rect transform="translate(-44 -44)" width="18" height="18"></rect><rect transform="translate(26 -34)" width="14" height="14"></rect><rect transform="translate(22 28)" width="16" height="16"></rect><rect transform="translate(-40 24)" width="12" height="12"></rect></g><g stroke-linecap="round" stroke-linejoin="round" transform="translate(-2 0)"><g fill="#ffdb47" stroke="#ffdb47"><path transform="rotate(-10)" stroke-width="8" d="M 21 -18 a 28 28 0 1 0 0 36 18.25 18.25 0 1 1 0 -36"></path></g><g fill="#ff877a"><ellipse transform="translate(-12 3) rotate(-5)" rx="4" ry="3" stroke="none"></ellipse><path transform="translate(-5 12)" stroke="#ff877a" stroke-width="2" fill="#ff877a" d="M 0 0 v 1 a 3 3 0 0 0 3 3 3 3 0 0 0 2.5 -3 v -1z"></path></g><g transform="translate(-8 -10) rotate(10)"><g fill="none" stroke="currentColor"><path d="M -6 0 a 6 6 0 0 0 12 0"></path><path d="M 0 6 v 2"></path><path transform="rotate(25)" d="M 0 6 v 2"></path><path transform="rotate(50)" d="M 0 6 v 2"></path><path transform="rotate(75)" d="M 0 6 v 2"></path><path transform="rotate(-25)" d="M 0 6 v 2"></path><path transform="rotate(-50)" d="M 0 6 v 2"></path><path transform="rotate(-75)" d="M 0 6 v 2"></path></g></g></g></svg>