<svg xmlns="http://www.w3.org/2000/svg" viewBox="-50 -50 100 100" width="100" height="100">
  <g fill="none" stroke="currentColor" stroke-linejoin="round" stroke-linecap="round">
    <g transform="rotate(45)">
      <path stroke-width="8" d="M -0 -46 q 23 15 23 52 v 10 a 8 8 0 0 1 -8 8 h -30 a 8 8 0 0 1 -8 -8 v -10 q 0 -37 23 -52" />
      <g stroke-width="7">
        <path d="M 23 6 h 2 a 12 12 0 0 1 12 12 v 6 h -21" />
        <path transform="scale(-1 1)" d="M 23 6 h 2 a 12 12 0 0 1 12 12 v 6 h -21" />
        <path d="M 0 24 c -10 5 -12 16 0 22.5 c 12 -6.5 10 -17.5 0 -22.5" />
        <circle r="9" cy="-11" />
      </g>
    </g>
  </g>
</svg>