<svg aria-hidden="true" xmlns="http://www.w3.org/2000/svg" viewBox="-50 -50 100 100" width="1em" height="1em">
  <g fill="currentColor" stroke="none">
    <path d="m-15 -50v0.050781a61 61 0 0 1 18.1 19.949h16.9a10 10 0 0 1 10 10 10 10 0 0 1-10 10h-9.8262a61 61 0 0 1 0.82617 10 61 61 0 0 1-0.92969 10h9.9297a10 10 0 0 1 10 10 10 10 0 0 1-10 10h-16.986a61 61 0 0 1-18.014 19.93v0.070312h35a30 30 0 0 0 30-30 30 30 0 0 0-7.6621-20.02 30 30 0 0 0 7.6621-19.98 30 30 0 0 0-30-30h-35z"/>
    <path d="m-50 -50v20a30 30 0 0 1 30 30 30 30 0 0 1-30 30v20a50 50 0 0 0 50-50 50 50 0 0 0-50-50z"/>
  </g>
</svg>
