<svg xmlns="http://www.w3.org/2000/svg" viewBox="-50 -50 100 100"><g><circle r="28" fill="#ffdb47"></circle></g><g><g><g fill="none" stroke="#ffdb47" stroke-width="3" stroke-linecap="round"><path transform="rotate(0)" d="M 35 0 h 7"></path><path transform="rotate(15)" d="M 35 0 h 6"></path><path transform="rotate(30)" d="M 35 0 h 7"></path><path transform="rotate(45)" d="M 35 0 h 6"></path><path transform="rotate(60)" d="M 35 0 h 7"></path><path transform="rotate(75)" d="M 35 0 h 6"></path><path transform="rotate(90)" d="M 35 0 h 7"></path><path transform="rotate(105)" d="M 35 0 h 6"></path><path transform="rotate(120)" d="M 35 0 h 7"></path><path transform="rotate(135)" d="M 35 0 h 6"></path><path transform="rotate(150)" d="M 35 0 h 7"></path><path transform="rotate(165)" d="M 35 0 h 6"></path><path transform="rotate(180)" d="M 35 0 h 7"></path><path transform="rotate(195)" d="M 35 0 h 6"></path><path transform="rotate(210)" d="M 35 0 h 7"></path><path transform="rotate(225)" d="M 35 0 h 6"></path><path transform="rotate(240)" d="M 35 0 h 7"></path><path transform="rotate(255)" d="M 35 0 h 6"></path><path transform="rotate(270)" d="M 35 0 h 7"></path><path transform="rotate(285)" d="M 35 0 h 6"></path><path transform="rotate(300)" d="M 35 0 h 7"></path><path transform="rotate(315)" d="M 35 0 h 6"></path><path transform="rotate(330)" d="M 35 0 h 7"></path><path transform="rotate(345)" d="M 35 0 h 6"></path></g></g></g><g fill="#ff877a"><g><g transform="translate(-9 5)"><circle r="4"></circle></g><g transform="translate(9 5)"><circle r="4"></circle></g><g transform="translate(0 6)"><g transform="scale(1)"><g stroke="#ff877a" stroke-width="2" stroke-linejoin="round" stroke-linecap="round"><path d="M -1.5 0 v 1.5 a 1.5 1.5 0 0 0 3 0 v -1.5z"></path></g></g></g></g></g><g><g fill="#38311e" stroke="#ffdb47" stroke-width="1"><g transform="translate(-5 0)"><circle r="2"></circle></g><g transform="translate(5 0)"><circle r="2"></circle></g></g></g></svg>