<svg xmlns="http://www.w3.org/2000/svg" viewBox="-41.46 -35.72 82.91 78.21"><path fill="oklch(84% 0.172 90)" stroke="oklch(84% 0.172 90)" stroke-linecap="round" stroke-linejoin="round" d="M 0 19 C -21.17 29.12 -21.17 29.12 -18.08 5.87 C -34.24 -11.13 -34.24 -11.13 -11.17 -15.38 C -0.01 -36 -0.01 -36 11.16 -15.38 C 34.23 -11.13 34.23 -11.13 18.07 5.87 C 21.16 29.12 21.16 29.12 0 19"><animateTransform attributeName="transform" type="scale" values="1; 0.9; 1" dur="10s" repeatCount="indefinite" /></path><g fill="oklch(84% 0.172 90)" stroke="oklch(84% 0.172 90)" stroke-linecap="round" stroke-linejoin="round" stroke-width="4"><path transform="rotate(40) translate(0 -36)" d="M -4 -4 4 -4 0 4 Z" /><path transform="rotate(110) translate(0 -36)" d="M -4 -4 4 -4 0 4 Z" /><path transform="rotate(180) translate(0 -36)" d="M -4 -4 4 -4 0 4 Z" /><path transform="rotate(-110) translate(0 -36)" d="M -4 -4 4 -4 0 4 Z" /><path transform="rotate(-40) translate(0 -36)" d="M -4 -4 4 -4 0 4 Z" /><animateTransform attributeName="transform" type="scale" values="0.9; 1; 0.9" dur="2.5s" repeatCount="indefinite" /></g></svg>