<svg xmlns="http://www.w3.org/2000/svg" viewBox="-50 -50 100 100" width="200" height="200">
      <g stroke="currentColor" stroke-linecap="round" stroke-linejoin="round">
        <g fill="none" stroke-width="4">
          <path stroke-dasharray="84 20 84" d="M 0 -2 v 4 l 24 36 a 4 4 0 0 1 -8 8 l -16 -24 -16 24 a 4 4 0 0 1 -8 -8 l 24 -36" />
          <path d="M 5 19 v 24 a 5 5 0 0 1 -10 0 v -24" />
          <g transform="translate(0 -10)">
            <g transform="scale(1 -1)">
              <g transform="rotate(28)">
                <g transform="scale(1 -1)">
                  <path stroke-dasharray="9 33" d="M 0 8 a 8 8 0 0 1 0 -16 8 8 0 0 1 0 16" />
                </g>
              </g>
            </g>
          </g>
        </g>
        <g fill="none">
          <g transform="translate(0 -17)">
            <g transform="scale(1 -1)">
              <g transform="rotate(28)">
                <g transform="translate(26 0)">
                  <path stroke-width="7" transform="translate(-65 0) scale(0.4)" d="M 0 -13 l -20 1 v 24 l 20 1" />
                  <path stroke-width="6" transform="translate(-52 0) scale(0.55)" d="M 0 -13 l -20 1 v 24 l 20 1" />
                  <path stroke-width="5" transform="translate(-38 0) scale(0.65)" d="M 0 -13 l -20 1 v 24 l 20 1" />
                  <path stroke-width="4.5" transform="translate(-20 0) scale(0.8)" d="M 0 -13 l -20 1 v 24 l 20 1" />
                  <g stroke-width="4">
                    <path d="M 0 -13 l -20 1 v 24 l 20 1" />
                    <path d="M 12 -14 a 16.5 16.5 0 0 1 0 28" />
                    <rect y="-17" width="12" height="34" rx="6" />
                  </g>
                </g>
              </g>
            </g>
          </g>
        </g>
      </g>
    </svg>