<svg xmlns="http://www.w3.org/2000/svg" viewBox="-55 -55 110 110" width="200" height="200" style="background: hsl(215, 22%, 5%); color:  hsl(215, 10%, 97%);">
  <g fill="none" stroke="currentColor" stroke-linecap="round" stroke-linejoin="round">
    <g transform="rotate(-80) translate(0 -40) rotate(80) scale(0.25)">      
      <path fill="currentColor" stroke="none" d="M-40.5-33v16h.5v.5h80v-16h-.5v-.5h-80zm8.5.5a4.5 4.5 0 014.5 4.5 4.5 4.5 0 01-4.5 4.5 4.5 4.5 0 01-4.5-4.5 4.5 4.5 0 014.5-4.5zm13 0a4.5 4.5 0 014.5 4.5 4.5 4.5 0 01-4.5 4.5 4.5 4.5 0 01-4.5-4.5 4.5 4.5 0 014.5-4.5zm13 0A4.5 4.5 0 01-1.5-28 4.5 4.5 0 01-6-23.5a4.5 4.5 0 01-4.5-4.5A4.5 4.5 0 01-6-32.5z"/>
      <g fill="none" stroke="currentColor" stroke-linecap="round" stroke-linejoin="round">
        <path d="M-45-37.5h90v75h-90z" stroke-width="10"/>
        <g stroke-width="8">
          <path d="M5-4L-5 21M-18 0l-8 8 8 8M18 0l8 8-8 8"/>
        </g>
      </g>      
    </g>
    <g transform="translate(0 -35) scale(0.35)">
      <path stroke-width="8" d="M -10.5 12 a 21 21 0 1 1 21 0 v 5 a 4 4 0 0 1 -4 4 h -13 a 4 4 0 0 1 -4 -4 v -5"/>
      <g stroke-width="7">
        <path d="M -8 31 h 16"/>
        <path d="M -8 40.5 h 16"/>
        <path fill="currentColor" d="M -6 40.5 a 6 6 0 0 0 12 0"/>
      </g>
      <g transform="translate(0 -6)" stroke-width="6">
        <path transform="rotate(0) translate(0 -34)" d="M 0 0 v -7" />
        <path transform="rotate(45) translate(0 -34.5)" d="M 0 0 v -6.5" />
        <path transform="rotate(-45) translate(0 -34.5)" d="M 0 0 v -6.5" />
        <path transform="rotate(90) translate(0 -35)" d="M 0 0 v -6" />
        <path transform="rotate(-90) translate(0 -35)" d="M 0 0 v -6" />
        <path transform="rotate(135) translate(0 -35.5)" d="M 0 0 v -5.5" />
        <path transform="rotate(-135) translate(0 -35.5)" d="M 0 0 v -5.5" />
      </g>
    </g>
    <g transform="rotate(80) translate(0 -40) rotate(-80) scale(0.25)">
      <g stroke-width="8">
        <path d="M 16.5 -44 h -52.5 a 10 10 0 0 0 -10 10 v 68 a 10 10 0 0 0 10 10 h 54 a 10 10 0 0 0 10 -10 v -17.5"/>
        <path d="M 29 -37.5 l 17 17 -38 38 h -17 v -17 l 38 -38"/>
      </g>
      <g stroke-width="7">
        <path d="M 20 -28.5 l 17 17"/>
        <path d="M -30 -22 h 25"/>
        <path d="M -30 -2 h 10"/>
        <path d="M -30 18 h 10"/>
      </g>
    </g>
  </g>

  <g transform="translate(0 54)">
    <g stroke-linecap="round" stroke-linejoin="round" stroke-width="2">
      <g stroke="none">
        <circle fill="none" r="25" cy="-24"/>
        <g fill="hsl(215, 10%, 97%)">
          <path d="M 23 -30 a 7.5 7.5 0 0 1 0 14 18 18 0 0 0 0 -14"/>
          <path transform="scale(-1 1)" d="M 23 -30 a 7.5 7.5 0 0 1 0 14 18 18 0 0 0 0 -14"/>
          
          <path d="M -25 -24 a 25 25 0 0 1 50 0 26 26 0 0 0 -50 0" />
          <path d="M -25 -24 a 25 25 0 0 0 50 0 25.2 25.2 0 0 1 -50 0" />
          <path d="M -8 -35 a 12.5 12.5 0 0 0 5 27.5 27.5 27.5 0 0 1 -5 -27.5" />
        </g>
      </g>
    </g>
  </g>
</svg>