<svg xmlns="http://www.w3.org/2000/svg" viewBox="-50 -50 100 100" width="300" height="300" style="background: hsl(215, 22%, 5%); color:  hsl(215, 10%, 97%);">
  <g stroke-linecap="round" stroke-linejoin="round" stroke-width="2">    
    <g fill="hsl(215, 10%, 97%)" stroke="none">
      <path d="M 20 -2.5 c 10 -5 15 5 5 10 a 8 8 0 0 0 -5 -10" />
      <path transform="scale(-1 1)" d="M 20 -2.5 c 10 -5 15 5 5 10 a 8 8 0 0 0 -5 -10" />
      <path d="M 20 41.5 c 2.5 10 -10 10 -16 -5 a 16 16 0 0 0 16 5" />
      <path transform="scale(-1 1)" d="M 20 41.5 c 2.5 10 -10 10 -16 -5 a 16 16 0 0 0 16 5" />
    </g>

    <g stroke="none">
      <circle fill="none" r="25" cy="-24"/>
      <g fill="hsl(215, 10%, 97%)">
        <path d="M 23 -30 a 7.5 7.5 0 0 1 0 14 18 18 0 0 0 0 -14"/>
        <path transform="scale(-1 1)" d="M 23 -30 a 7.5 7.5 0 0 1 0 14 18 18 0 0 0 0 -14"/>
        
        <path d="M -25 -24 a 25 25 0 0 1 50 0 26 26 0 0 0 -50 0" />
        <path d="M -25 -24 a 25 25 0 0 0 50 0 25.2 25.2 0 0 1 -50 0" />
        <path d="M -8 -35 a 12.5 12.5 0 0 0 5 27.5 27.5 27.5 0 0 1 -5 -27.5" />
      </g>
    </g>
  </g>
</svg>