<svg xmlns="http://www.w3.org/2000/svg" viewBox="-55 -35 110 60" width="220" height="120" style="background: hsl(215, 22%, 5%); color:  hsl(215, 10%, 97%);">
  <g transform="rotate(180)">
    <g fill="currentColor" stroke="currentColor" stroke-linecap="round" stroke-linejoin="round" stroke-width="3">
      <path transform="translate(0 -10)" d="M -4 0 a 4 4 0 0 0 4 -4 4 4 0 0 0 4 4 4 4 0 0 0 -4 4 4 4 0 0 0 -4 -4" />
      <path transform="rotate(90) translate(0 -35) scale(0.8)" d="M -4 0 a 4 4 0 0 0 4 -4 4 4 0 0 0 4 4 4 4 0 0 0 -4 4 4 4 0 0 0 -4 -4" />
      <path transform="rotate(-90) translate(0 -35) scale(0.8)" d="M -4 0 a 4 4 0 0 0 4 -4 4 4 0 0 0 4 4 4 4 0 0 0 -4 4 4 4 0 0 0 -4 -4" />
    </g>

    <g transform="translate(0 54)">
      <g stroke-linecap="round" stroke-linejoin="round" stroke-width="2">
        <g stroke="none">
          <circle fill="none" r="25" cy="-24"/>
          <g fill="currentColor">
            <path d="M 23 -30 a 7.5 7.5 0 0 1 0 14 18 18 0 0 0 0 -14"/>
            <path transform="scale(-1 1)" d="M 23 -30 a 7.5 7.5 0 0 1 0 14 18 18 0 0 0 0 -14"/>
            
            <path d="M -25 -24 a 25 25 0 0 1 50 0 26 26 0 0 0 -50 0" />
            <path d="M -25 -24 a 25 25 0 0 0 50 0 25.2 25.2 0 0 1 -50 0" />
            <path d="M -8 -35 a 12.5 12.5 0 0 0 5 27.5 27.5 27.5 0 0 1 -5 -27.5" />
          </g>
        </g>
      </g>
    </g>
  </g>
</svg>