<svg xmlns="http://www.w3.org/2000/svg" viewBox="-76 -33 100 100">
  <g fill="hsl(208, 95%, 75%)" stroke="hsl(220, 100%, 8%)" stroke-linecap="round" stroke-linejoin="round">
    <path stroke-width="5" transform="translate(-63 0) scale(0.4)" d="M 0 -13 l -20 1 v 24 l 20 1" />
    <path stroke-width="3.6" transform="translate(-51 0) scale(0.55)" d="M 0 -13 l -20 1 v 24 l 20 1" />
    <path stroke-width="3" transform="translate(-37 0) scale(0.65)" d="M 0 -13 l -20 1 v 24 l 20 1" />
    <path stroke-width="2.5" transform="translate(-20 0) scale(0.8)" d="M 0 -13 l -20 1 v 24 l 20 1" />
    <g stroke-width="2">
      <path d="M 0 -13 l -20 1 v 24 l 20 1" />
      <path d="M 12 -14 a 15 15 0 0 1 0 28" />
      <path fill="none" stroke-width="3" stroke-dasharray="0 8 12 20" transform="translate(12 0) scale(0.65)" d="M 0 -14 a 15 15 0 0 1 0 28" />
      <rect fill="hsl(210, 90%, 62%)" y="-17" width="12" height="34" rx="6" />
    </g>
  </g>
</svg>