<svg aria-hidden="true" xmlns="http://www.w3.org/2000/svg" viewBox="-50 -50 100 100" width="1em" height="1em">
  <g fill="currentColor" stroke="none">
    <path d="M-.07-50a5 5 0 00-3.461 1.465l-11.55 11.55 12.49 12.49a7 7 0 012.604-.506 7 7 0 017 7 7 7 0 01-.51 2.6l8.906 8.906A7 7 0 0118.013-7a7 7 0 017 7 7 7 0 01-7 7 7 7 0 01-7-7 7 7 0 01.508-2.602L2.763-11.36v22.92a7 7 0 014.25 6.436 7 7 0 01-7 7 7 7 0 01-7-7 7 7 0 014.25-6.428v-23.14a7 7 0 01-4.25-6.436 7 7 0 01.508-2.602L-18.97-33.1-48.52-3.55a5 5 0 000 7.07l45 45a5 5 0 007.07 0l45-45a5 5 0 000-7.07l-45-45a5 5 0 00-3.61-1.465z"/>
  </g>
</svg>