<svg aria-hidden="true" xmlns="http://www.w3.org/2000/svg" viewBox="-50 -50 100 100" width="1em" height="1em">
  <g fill="currentColor" stroke="none">
    <path d="m0 -34a34 34 0 0 0-34 34 34 34 0 0 0 34 34 34 34 0 0 0 34-34 34 34 0 0 0-34-34zm10 12a12 12 0 0 1 12 12 12 12 0 0 1-12 12 12 12 0 0 1-12-12 12 12 0 0 1 12-12z" />
    <circle cx="36" cy="-36" r="12" />
  </g>
  <circle r="48.5" fill="none" stroke="currentColor" stroke-width="3" stroke-dasharray="8" stroke-dashoffset="9.5" stroke-linecap="round" />
</svg>
