<svg aria-hidden="true" xmlns="http://www.w3.org/2000/svg" viewBox="-50 -50 100 100" width="1em" height="1em">
  <g fill="none" stroke="currentColor" stroke-width="12" stroke-linejoin="round" stroke-linecap="round">
    <circle r="44" />
  </g>
  <g fill="currentColor" stroke="none">
    <path d="M -2 4 h 9 a 8 8 0 0 1 8 8 v 6 a 4 4 0 0 1 4 4 8 8 0 0 1 -8 8 v 6 a 9 9 0 0 1 -18 0 v -6 a 8 8 0 0 0 -4 -4 11 11 0 0 1 0 -22" />
    <path d="M -18 -26 a 3 3 0 0 1 3 3 v 4 a 3 3 0 0 1 -3 3 h -2 a 3 3 0 0 1 -3 -3 3 3 0 0 1 3 -3 v -1 a 3 3 0 0 1 3 -3" />
    <path d="M 1 -28 a 4 4 0 0 1 -4 4 a 8 8 0 0 0 -8 8 v 3 a 4 4 0 0 0 -4 4 a 6 6 0 0 0 12 0 a 2 2 0 0 1 4 0 v 5 a 5 5 0 0 0 10 0 v -5 a 2 2 0 0 1 4 0 a 4 4 0 0 0 4 4 v 4 a 10 10 0 0 0 20 0 c 0 -38 -38 -38 -38 -38 a 4 4 0 0 0 -4 4 4 4 0 0 0 -4 4 4 4 0 0 0 4 4 h 4" />
  </g>
</svg>
