<svg xmlns="http://www.w3.org/2000/svg" viewBox="0 -80 420 160" ><style>svg {color: hsl(340, 90%, 55%); background: hsl(215, 22%, 5%); background-image: url('data:image/svg+xml,%3Csvg xmlns="http://www.w3.org/2000/svg" viewBox="-50 -50 100 100"%3E%3Cg opacity="0.5"%3E%3Cg fill="currentColor" stroke="none"%3E%3Ccircle r="12" /%3E%3Ccircle r="12" transform="translate(50 -50)" /%3E%3Ccircle r="12" transform="translate(50 50)" /%3E%3Ccircle r="12" transform="translate(-50 50)" /%3E%3Ccircle r="12" transform="translate(-50 -50)" /%3E%3C/g%3E%3C/g%3E%3C/svg%3E'); background-size: 20px; } svg text { color: hsl(215, 10%, 97%); } @keyframes translate { 50% { transform: translateY(-100px); } } @keyframes scale { 50% { transform: scale(1); } } @media (prefers-color-scheme: 'dark') { svg { color: hsl(210, 85%, 55%); } }</style><g style="animation: 10s translate infinite alternate ease-in-out; transform: translateY(0px)" fill="none" stroke="currentColor" stroke-linejoin="round" stroke-linecap="round"><g transform="translate(360 -40) scale(0.4)"><path stroke-width="8" d="M -0 -46 q 23 15 23 52 v 10 a 8 8 0 0 1 -8 8 h -30 a 8 8 0 0 1 -8 -8 v -10 q 0 -37 23 -52" /><g stroke-width="7"><path d="M 23 6 h 2 a 12 12 0 0 1 12 12 v 6 h -21" /><path transform="scale(-1 1)" d="M 23 6 h 2 a 12 12 0 0 1 12 12 v 6 h -21" /><g transform="translate(0 24)"><path style="animation: 10s -2.5s scale infinite alternate ease-in-out; transform: scale(0.2);" d="M 0 0 c -10 5 -12 16 0 22.5 c 12 -6.5 10 -17.5 0 -22.5" /></g><circle r="9" cy="-11" /></g></g></g><g fill="currentColor" transform="translate(50 0)" font-family="sans-serif"><text textLength="320" font-size="34" font-weight="700">borntofrappe</text><text y="28" style="text-transform: uppercase;" textLength="320" font-size="12">Ready to launch</text></g></svg>